Coordinates
version=1
nRows=38
nColumns=12
inDegrees=yes

Units are S.I. units (second, meters, Newtons, ...)
Angles are in degrees

endheader
time	SC_y	SC_z	SC_x	AC_y	AC_z	AC_x	GH_y	GH_z	GH_yy	EL_x	PS_y
       0.0              -30.82          4.284           50.6          35.17         -7.945         -18.85          36.53          34.62          149.7          62.03          120.7
   0.03358              -30.82          4.284           50.6          35.18         -7.947         -18.85          36.53          34.61          149.6          62.03          120.7
   0.06715              -30.82          4.284           50.6          35.18         -7.949         -18.84          36.53           34.6          149.6          62.04          120.6
    0.1007              -30.82          4.285          50.61          35.18          -7.95         -18.84          36.53           34.6          149.6          62.04          120.6
    0.1343              -30.82          4.285          50.61          35.19         -7.952         -18.84          36.53          34.59          149.5          62.04          120.6
    0.1679              -30.82          4.285          50.62          35.19         -7.954         -18.84          36.53          34.58          149.5          62.04          120.6
    0.2015              -30.82          4.286          50.62           35.2         -7.956         -18.83          36.53          34.57          149.4          62.05          120.6
     0.235              -30.82          4.286          50.63          35.21         -7.959         -18.83          36.53          34.56          149.3          62.05          120.6
    0.2686              -30.82          4.286          50.63          35.21         -7.961         -18.82          36.53          34.55          149.3          62.05          120.5
    0.3022              -30.82          4.287          50.64          35.22         -7.964         -18.82          36.53          34.54          149.2          62.06          120.5
    0.3358              -30.82          4.287          50.64          35.22         -7.967         -18.82          36.53          34.52          149.1          62.06          120.5
    0.3693              -30.81          4.287          50.65          35.23          -7.97         -18.81          36.53          34.51          149.1          62.06          120.5
    0.4029              -30.81          4.288          50.66          35.24         -7.973         -18.81          36.53           34.5          149.0          62.07          120.4
    0.4365              -30.81          4.288          50.66          35.25         -7.977          -18.8          36.53          34.48          148.9          62.07          120.4
    0.4701              -30.81          4.289          50.67          35.26         -7.981         -18.79          36.53          34.46          148.8          62.08          120.4
    0.5037              -30.81          4.289          50.68          35.27         -7.985         -18.79          36.53          34.45          148.7          62.09          120.3
    0.5372              -30.81           4.29          50.69          35.28         -7.989         -18.78          36.53          34.43          148.6          62.09          120.3
    0.5708              -30.81          4.291           50.7          35.29         -7.994         -18.77          36.53           34.4          148.4           62.1          120.2
    0.6044              -30.81          4.292          50.71           35.3           -8.0         -18.76          36.53          34.38          148.3          62.11          120.2
     0.638              -30.81          4.292          50.72          35.32         -8.006         -18.75          36.53          34.35          148.1          62.11          120.1
    0.6715              -30.81          4.293          50.73          35.33         -8.012         -18.74          36.53          34.33          148.0          62.12          120.1
    0.7051              -30.81          4.294          50.75          35.35          -8.02         -18.73          36.53          34.29          147.8          62.13          120.0
    0.7387               -30.8          4.295          50.77          35.37         -8.028         -18.72          36.53          34.26          147.6          62.14          120.0
    0.7723               -30.8          4.297          50.78          35.39         -8.036         -18.71          36.53          34.22          147.4          62.16          119.9
    0.8058               -30.8          4.298           50.8          35.42         -8.046         -18.69          36.53          34.18          147.1          62.17          119.8
    0.8394               -30.8          4.299          50.83          35.44         -8.057         -18.67          36.53          34.13          146.8          62.19          119.7
     0.873               -30.8          4.301          50.85          35.47         -8.069         -18.66          36.53          34.08          146.5           62.2          119.6
    0.9066              -30.79          4.303          50.88          35.51         -8.083         -18.63          36.53          34.02          146.2          62.22          119.5
    0.9402              -30.79          4.305          50.91          35.54         -8.099         -18.61          36.53          33.95          145.8          62.24          119.3
    0.9737              -30.79          4.308          50.95          35.59         -8.116         -18.58          36.53          33.87          145.3          62.27          119.2
     1.007              -30.78           4.31          50.99          35.63         -8.137         -18.55          36.53          33.78          144.8           62.3          119.0
     1.041              -30.78          4.314          51.03          35.69          -8.16         -18.51          36.53          33.68          144.2          62.33          118.8
     1.074              -30.77          4.317          51.09          35.75         -8.187         -18.47          36.53          33.57          143.6          62.36          118.6
     1.108              -30.77          4.322          51.15          35.83         -8.218         -18.42          36.53          33.43          142.8          62.41          118.3
     1.142              -30.76          4.327          51.23          35.92         -8.254         -18.37          36.53          33.27          141.8          62.46          118.0
     1.175              -30.75          4.333          51.31          36.02         -8.297          -18.3          36.53          33.09          140.8          62.52          117.6
     1.209              -30.74           4.34          51.42          36.14         -8.348         -18.22          36.53          32.86          139.5          62.59          117.1
     1.242              -30.73          4.348          51.54          36.29         -8.409         -18.12          36.53           32.6          137.9          62.67          116.6
